<svg xmlns="http://www.w3.org/2000/svg" xmlns:xlink="http://www.w3.org/1999/xlink" width="500" zoomAndPan="magnify" viewBox="0 0 375 374.999991" height="500" preserveAspectRatio="xMidYMid meet" version="1.2"><defs><clipPath id="4050574b29"><path d="M 139 110 L 144 110 L 144 114 L 139 114 Z M 139 110 "/></clipPath><clipPath id="21b7336f0d"><path d="M 143.488281 112.15625 C 143.488281 112.398438 143.441406 112.632812 143.347656 112.855469 C 143.257812 113.082031 143.125 113.28125 142.953125 113.453125 C 142.78125 113.625 142.582031 113.757812 142.355469 113.847656 C 142.132812 113.941406 141.898438 113.988281 141.65625 113.988281 C 141.410156 113.988281 141.179688 113.941406 140.953125 113.847656 C 140.730469 113.757812 140.53125 113.625 140.359375 113.453125 C 140.1875 113.28125 140.054688 113.082031 139.960938 112.855469 C 139.867188 112.632812 139.820312 112.398438 139.820312 112.15625 C 139.820312 111.910156 139.867188 111.679688 139.960938 111.453125 C 140.054688 111.230469 140.1875 111.03125 140.359375 110.859375 C 140.53125 110.6875 140.730469 110.554688 140.953125 110.460938 C 141.179688 110.367188 141.410156 110.320312 141.65625 110.320312 C 141.898438 110.320312 142.132812 110.367188 142.355469 110.460938 C 142.582031 110.554688 142.78125 110.6875 142.953125 110.859375 C 143.125 111.03125 143.257812 111.230469 143.347656 111.453125 C 143.441406 111.679688 143.488281 111.910156 143.488281 112.15625 Z M 143.488281 112.15625 "/></clipPath><clipPath id="28650d8fd4"><path d="M 147 110 L 151 110 L 151 114 L 147 114 Z M 147 110 "/></clipPath><clipPath id="6d4bd06f0c"><path d="M 150.824219 112.15625 C 150.824219 112.398438 150.777344 112.632812 150.683594 112.855469 C 150.589844 113.082031 150.460938 113.28125 150.285156 113.453125 C 150.113281 113.625 149.917969 113.757812 149.691406 113.847656 C 149.46875 113.941406 149.234375 113.988281 148.992188 113.988281 C 148.746094 113.988281 148.511719 113.941406 148.289062 113.847656 C 148.0625 113.757812 147.867188 113.625 147.695312 113.453125 C 147.523438 113.28125 147.390625 113.082031 147.296875 112.855469 C 147.203125 112.632812 147.15625 112.398438 147.15625 112.15625 C 147.15625 111.910156 147.203125 111.679688 147.296875 111.453125 C 147.390625 111.230469 147.523438 111.03125 147.695312 110.859375 C 147.867188 110.6875 148.0625 110.554688 148.289062 110.460938 C 148.511719 110.367188 148.746094 110.320312 148.992188 110.320312 C 149.234375 110.320312 149.46875 110.367188 149.691406 110.460938 C 149.917969 110.554688 150.113281 110.6875 150.285156 110.859375 C 150.460938 111.03125 150.589844 111.230469 150.683594 111.453125 C 150.777344 111.679688 150.824219 111.910156 150.824219 112.15625 Z M 150.824219 112.15625 "/></clipPath><clipPath id="e2cb8dc6f4"><path d="M 154 110 L 159 110 L 159 114 L 154 114 Z M 154 110 "/></clipPath><clipPath id="bafeb43802"><path d="M 158.160156 112.15625 C 158.160156 112.398438 158.113281 112.632812 158.019531 112.855469 C 157.925781 113.082031 157.792969 113.28125 157.621094 113.453125 C 157.449219 113.625 157.25 113.757812 157.027344 113.847656 C 156.800781 113.941406 156.570312 113.988281 156.324219 113.988281 C 156.082031 113.988281 155.847656 113.941406 155.625 113.847656 C 155.398438 113.757812 155.199219 113.625 155.027344 113.453125 C 154.855469 113.28125 154.722656 113.082031 154.632812 112.855469 C 154.539062 112.632812 154.492188 112.398438 154.492188 112.15625 C 154.492188 111.910156 154.539062 111.679688 154.632812 111.453125 C 154.722656 111.230469 154.855469 111.03125 155.027344 110.859375 C 155.199219 110.6875 155.398438 110.554688 155.625 110.460938 C 155.847656 110.367188 156.082031 110.320312 156.324219 110.320312 C 156.570312 110.320312 156.800781 110.367188 157.027344 110.460938 C 157.25 110.554688 157.449219 110.6875 157.621094 110.859375 C 157.792969 111.03125 157.925781 111.230469 158.019531 111.453125 C 158.113281 111.679688 158.160156 111.910156 158.160156 112.15625 Z M 158.160156 112.15625 "/></clipPath><clipPath id="f0fafbeb3d"><path d="M 169 110 L 208 110 L 208 114 L 169 114 Z M 169 110 "/></clipPath><clipPath id="6a45de788a"><path d="M 170.996094 113.988281 L 205.835938 113.988281 C 206.851562 113.988281 207.671875 113.167969 207.671875 112.15625 C 207.671875 111.144531 206.851562 110.320312 205.835938 110.320312 L 170.996094 110.320312 C 169.984375 110.320312 169.160156 111.144531 169.160156 112.15625 C 169.160156 113.167969 169.984375 113.988281 170.996094 113.988281 Z M 170.996094 113.988281 "/></clipPath><clipPath id="507491a445"><path d="M 211 110 L 225 110 L 225 114 L 211 114 Z M 211 110 "/></clipPath><clipPath id="83826a5199"><path d="M 213.171875 113.988281 L 222.34375 113.988281 C 223.355469 113.988281 224.175781 113.167969 224.175781 112.15625 C 224.175781 111.144531 223.355469 110.320312 222.34375 110.320312 L 213.171875 110.320312 C 212.160156 110.320312 211.339844 111.144531 211.339844 112.15625 C 211.339844 113.167969 212.160156 113.988281 213.171875 113.988281 Z M 213.171875 113.988281 "/></clipPath><clipPath id="a51b4c98b0"><path d="M 170 146 L 175 146 L 175 151 L 170 151 Z M 170 146 "/></clipPath><clipPath id="097199d87b"><path d="M 174.664062 148.832031 C 174.664062 149.074219 174.617188 149.308594 174.523438 149.53125 C 174.429688 149.757812 174.296875 149.957031 174.125 150.128906 C 173.953125 150.300781 173.757812 150.433594 173.53125 150.523438 C 173.308594 150.617188 173.074219 150.664062 172.828125 150.664062 C 172.585938 150.664062 172.351562 150.617188 172.128906 150.523438 C 171.902344 150.433594 171.703125 150.300781 171.53125 150.128906 C 171.359375 149.957031 171.226562 149.757812 171.136719 149.53125 C 171.042969 149.308594 170.996094 149.074219 170.996094 148.832031 C 170.996094 148.585938 171.042969 148.355469 171.136719 148.128906 C 171.226562 147.90625 171.359375 147.707031 171.53125 147.535156 C 171.703125 147.363281 171.902344 147.230469 172.128906 147.136719 C 172.351562 147.042969 172.585938 146.996094 172.828125 146.996094 C 173.074219 146.996094 173.308594 147.042969 173.53125 147.136719 C 173.757812 147.230469 173.953125 147.363281 174.125 147.535156 C 174.296875 147.707031 174.429688 147.90625 174.523438 148.128906 C 174.617188 148.355469 174.664062 148.585938 174.664062 148.832031 Z M 174.664062 148.832031 "/></clipPath><clipPath id="d88884e8d2"><path d="M 163 146 L 168 146 L 168 151 L 163 151 Z M 163 146 "/></clipPath><clipPath id="e1d712229a"><path d="M 167.328125 148.832031 C 167.328125 149.074219 167.28125 149.308594 167.1875 149.53125 C 167.09375 149.757812 166.964844 149.957031 166.792969 150.128906 C 166.621094 150.300781 166.421875 150.433594 166.195312 150.523438 C 165.972656 150.617188 165.738281 150.664062 165.496094 150.664062 C 165.25 150.664062 165.015625 150.617188 164.792969 150.523438 C 164.566406 150.433594 164.371094 150.300781 164.199219 150.128906 C 164.027344 149.957031 163.894531 149.757812 163.800781 149.53125 C 163.707031 149.308594 163.660156 149.074219 163.660156 148.832031 C 163.660156 148.585938 163.707031 148.355469 163.800781 148.128906 C 163.894531 147.90625 164.027344 147.707031 164.199219 147.535156 C 164.371094 147.363281 164.566406 147.230469 164.792969 147.136719 C 165.015625 147.042969 165.25 146.996094 165.496094 146.996094 C 165.738281 146.996094 165.972656 147.042969 166.195312 147.136719 C 166.421875 147.230469 166.621094 147.363281 166.792969 147.535156 C 166.964844 147.707031 167.09375 147.90625 167.1875 148.128906 C 167.28125 148.355469 167.328125 148.585938 167.328125 148.832031 Z M 167.328125 148.832031 "/></clipPath><clipPath id="e72c6b67d8"><path d="M 158 167 L 181 167 L 181 175 L 158 175 Z M 158 167 "/></clipPath><clipPath id="85429f971a"><path d="M 180.164062 169.003906 C 180.164062 167.992188 179.34375 167.167969 178.332031 167.167969 L 175.097656 167.167969 C 172.824219 167.167969 170.71875 168.054688 169.160156 169.585938 C 167.605469 168.054688 165.5 167.167969 163.226562 167.167969 L 159.992188 167.167969 C 158.980469 167.167969 158.160156 167.992188 158.160156 169.003906 C 158.160156 170.015625 158.980469 170.835938 159.992188 170.835938 L 163.226562 170.835938 C 165.058594 170.835938 166.703125 171.855469 167.519531 173.488281 C 167.832031 174.113281 168.46875 174.503906 169.160156 174.503906 C 169.855469 174.503906 170.492188 174.113281 170.804688 173.488281 C 171.621094 171.855469 173.265625 170.835938 175.097656 170.835938 L 178.332031 170.835938 C 179.34375 170.835938 180.164062 170.015625 180.164062 169.003906 Z M 180.164062 169.003906 "/></clipPath><clipPath id="0bb5c84520"><path d="M 185 124 L 197 124 L 197 129 L 185 129 Z M 185 124 "/></clipPath><clipPath id="206d2c677d"><path d="M 187.5 128.660156 L 194.835938 128.660156 C 195.847656 128.660156 196.667969 127.835938 196.667969 126.824219 C 196.667969 125.8125 195.847656 124.992188 194.835938 124.992188 L 187.5 124.992188 C 186.488281 124.992188 185.667969 125.8125 185.667969 126.824219 C 185.667969 127.835938 186.488281 128.660156 187.5 128.660156 Z M 187.5 128.660156 "/></clipPath><clipPath id="82b4fa78cf"><path d="M 139 124 L 151 124 L 151 129 L 139 129 Z M 139 124 "/></clipPath><clipPath id="9640beb681"><path d="M 141.65625 128.660156 L 148.992188 128.660156 C 150.003906 128.660156 150.824219 127.835938 150.824219 126.824219 C 150.824219 125.8125 150.003906 124.992188 148.992188 124.992188 L 141.65625 124.992188 C 140.644531 124.992188 139.820312 125.8125 139.820312 126.824219 C 139.820312 127.835938 140.644531 128.660156 141.65625 128.660156 Z M 141.65625 128.660156 "/></clipPath><clipPath id="ea90f80ca3"><path d="M 139 132 L 149 132 L 149 136 L 139 136 Z M 139 132 "/></clipPath><clipPath id="3693872027"><path d="M 148.992188 134.160156 C 148.992188 133.148438 148.167969 132.328125 147.15625 132.328125 L 141.65625 132.328125 C 140.644531 132.328125 139.820312 133.148438 139.820312 134.160156 C 139.820312 135.171875 140.644531 135.996094 141.65625 135.996094 L 147.15625 135.996094 C 148.167969 135.996094 148.992188 135.171875 148.992188 134.160156 Z M 148.992188 134.160156 "/></clipPath><clipPath id="f1c0d7873a"><path d="M 132.484375 102.984375 L 242.734375 102.984375 L 242.734375 213.234375 L 132.484375 213.234375 Z M 132.484375 102.984375 "/></clipPath><clipPath id="6836e95975"><path d="M 231.511719 163.550781 L 231.511719 104.820312 C 231.511719 103.808594 230.691406 102.984375 229.675781 102.984375 L 134.320312 102.984375 C 133.308594 102.984375 132.484375 103.808594 132.484375 104.820312 L 132.484375 196.507812 C 132.484375 197.523438 133.308594 198.34375 134.320312 198.34375 L 177.960938 198.34375 L 171.960938 205.679688 L 154.15625 205.679688 C 153.394531 203.550781 151.378906 202.011719 148.992188 202.011719 C 145.957031 202.011719 143.488281 204.480469 143.488281 207.511719 C 143.488281 210.546875 145.957031 213.011719 148.992188 213.011719 C 151.378906 213.011719 153.394531 211.476562 154.15625 209.347656 L 172.828125 209.347656 C 173.378906 209.347656 173.902344 209.097656 174.25 208.671875 L 182.699219 198.34375 L 190.695312 198.34375 C 195.316406 207.058594 204.472656 213.011719 215.003906 213.011719 C 230.171875 213.011719 242.511719 200.675781 242.511719 185.507812 C 242.511719 176.535156 238.175781 168.578125 231.511719 163.550781 Z M 148.992188 209.347656 C 147.980469 209.347656 147.15625 208.523438 147.15625 207.511719 C 147.15625 206.5 147.980469 205.679688 148.992188 205.679688 C 150 205.679688 150.824219 206.5 150.824219 207.511719 C 150.824219 208.523438 150 209.347656 148.992188 209.347656 Z M 227.84375 117.65625 L 165.496094 117.65625 L 165.496094 106.652344 L 227.84375 106.652344 Z M 136.152344 106.652344 L 161.828125 106.652344 L 161.828125 117.65625 L 136.152344 117.65625 Z M 136.152344 194.675781 L 136.152344 121.324219 L 227.84375 121.324219 L 227.84375 161.199219 C 224.519531 159.4375 220.792969 158.355469 216.839844 158.09375 L 216.839844 139.660156 C 216.839844 139.546875 216.796875 139.449219 216.777344 139.34375 C 218.9375 138.601562 220.507812 136.570312 220.507812 134.160156 C 220.507812 131.128906 218.039062 128.660156 215.007812 128.660156 C 211.972656 128.660156 209.503906 131.128906 209.503906 134.160156 C 209.503906 136.570312 211.074219 138.601562 213.238281 139.34375 C 213.21875 139.449219 213.171875 139.546875 213.171875 139.660156 L 213.171875 158.09375 C 210.21875 158.289062 207.394531 158.9375 204.765625 160 L 198.503906 156.867188 L 198.503906 144.824219 C 200.632812 144.066406 202.171875 142.050781 202.171875 139.660156 C 202.171875 136.628906 199.703125 134.160156 196.667969 134.160156 C 193.636719 134.160156 191.167969 136.628906 191.167969 139.660156 C 191.167969 142.050781 192.707031 144.066406 194.835938 144.824219 L 194.835938 158 C 194.835938 158.695312 195.226562 159.328125 195.847656 159.640625 L 200.695312 162.0625 C 197.519531 164.007812 194.769531 166.570312 192.613281 169.59375 C 191.226562 164 186.179688 159.832031 180.164062 159.832031 C 178.414062 159.832031 176.949219 158.597656 176.585938 156.925781 C 177.464844 156.121094 178.214844 155.183594 178.796875 154.136719 C 179.242188 154.253906 179.695312 154.332031 180.164062 154.332031 C 182.644531 154.332031 184.742188 152.6875 185.429688 150.429688 C 187.6875 149.742188 189.332031 147.644531 189.332031 145.164062 C 189.332031 142.707031 187.71875 140.621094 185.492188 139.917969 C 185.21875 138.699219 184.636719 137.570312 183.792969 136.632812 C 183.820312 136.417969 183.832031 136.207031 183.832031 135.996094 C 183.832031 133.539062 182.214844 131.457031 179.996094 130.75 C 179.273438 127.460938 176.332031 124.992188 172.828125 124.992188 C 171.023438 124.992188 169.300781 125.664062 167.964844 126.867188 C 165.324219 126.535156 162.960938 128.171875 162.136719 130.5 C 158.539062 130.347656 155.40625 132.863281 154.664062 136.25 C 152.441406 136.957031 150.824219 139.042969 150.824219 141.496094 C 150.824219 143.148438 151.554688 144.671875 152.773438 145.699219 C 152.695312 146.125 152.65625 146.558594 152.65625 146.996094 C 152.65625 150.914062 155.753906 154.097656 159.625 154.296875 C 160.191406 155.28125 160.90625 156.167969 161.742188 156.933594 C 161.390625 158.589844 159.917969 159.832031 158.160156 159.832031 C 151.082031 159.832031 145.324219 165.59375 145.324219 172.671875 C 145.324219 173.683594 146.144531 174.503906 147.15625 174.503906 L 150.824219 174.503906 C 154.230469 174.503906 157.078125 176.851562 157.898438 180.003906 L 156.324219 180.003906 C 151.269531 180.003906 147.15625 184.117188 147.15625 189.175781 C 147.15625 190.1875 147.976562 191.007812 148.992188 191.007812 L 183.960938 191.007812 L 180.960938 194.675781 Z M 215.007812 135.996094 C 213.996094 135.996094 213.171875 135.171875 213.171875 134.160156 C 213.171875 133.148438 213.996094 132.328125 215.007812 132.328125 C 216.019531 132.328125 216.839844 133.148438 216.839844 134.160156 C 216.839844 135.171875 216.019531 135.996094 215.007812 135.996094 Z M 196.667969 141.496094 C 195.65625 141.496094 194.835938 140.671875 194.835938 139.660156 C 194.835938 138.652344 195.65625 137.828125 196.667969 137.828125 C 197.679688 137.828125 198.503906 138.652344 198.503906 139.660156 C 198.503906 140.671875 197.679688 141.496094 196.667969 141.496094 Z M 150.824219 170.835938 L 149.175781 170.835938 C 150.027344 166.65625 153.734375 163.5 158.160156 163.5 C 161.207031 163.5 163.820312 161.632812 164.929688 158.984375 C 166.230469 159.53125 167.660156 159.832031 169.160156 159.832031 C 170.660156 159.832031 172.09375 159.53125 173.394531 158.984375 C 174.503906 161.632812 177.117188 163.5 180.164062 163.5 C 184.59375 163.5 188.296875 166.65625 189.148438 170.835938 L 187.5 170.835938 C 182.058594 170.835938 177.527344 174.808594 176.648438 180.003906 L 161.671875 180.003906 C 160.796875 174.808594 156.265625 170.835938 150.824219 170.835938 Z M 159.992188 141.496094 C 158.980469 141.496094 158.160156 142.316406 158.160156 143.328125 L 158.160156 148.832031 C 158.160156 149.296875 158.199219 149.753906 158.253906 150.207031 C 157.113281 149.585938 156.324219 148.386719 156.324219 146.996094 C 156.324219 146.511719 156.421875 146.035156 156.609375 145.585938 C 156.796875 145.136719 156.796875 144.632812 156.613281 144.183594 C 156.425781 143.734375 156.070312 143.375 155.621094 143.1875 C 154.933594 142.902344 154.492188 142.238281 154.492188 141.496094 C 154.492188 140.484375 155.316406 139.660156 156.324219 139.660156 C 157.335938 139.660156 158.160156 138.839844 158.160156 137.828125 C 158.160156 135.804688 159.804688 134.160156 161.828125 134.160156 C 162.222656 134.160156 162.628906 134.238281 163.070312 134.398438 C 163.664062 134.617188 164.304688 134.421875 164.804688 134.035156 C 165.300781 133.652344 165.554688 132.953125 165.496094 132.328125 C 165.496094 131.316406 166.316406 130.492188 167.328125 130.492188 C 167.515625 130.492188 167.71875 130.53125 167.945312 130.613281 C 168.679688 130.882812 169.503906 130.648438 169.992188 130.039062 C 170.703125 129.160156 171.738281 128.660156 172.828125 128.660156 C 174.851562 128.660156 176.496094 130.304688 176.496094 132.328125 C 176.496094 133.339844 177.320312 134.160156 178.332031 134.160156 C 179.339844 134.160156 180.164062 134.984375 180.164062 135.996094 C 180.164062 136.183594 180.125 136.386719 180.042969 136.613281 C 179.78125 137.347656 180.007812 138.167969 180.617188 138.660156 C 181.496094 139.367188 182 140.402344 182 141.496094 C 182 142.507812 182.820312 143.328125 183.832031 143.328125 C 184.84375 143.328125 185.667969 144.152344 185.667969 145.164062 C 185.667969 146.171875 184.84375 146.996094 183.832031 146.996094 C 182.820312 146.996094 182 147.820312 182 148.832031 C 182 149.839844 181.175781 150.664062 180.164062 150.664062 C 180.105469 150.664062 180.0625 150.636719 180.003906 150.632812 C 180.101562 150.046875 180.164062 149.445312 180.164062 148.832031 L 180.164062 143.328125 C 180.164062 142.316406 179.34375 141.496094 178.332031 141.496094 C 177.589844 141.496094 176.925781 141.050781 176.636719 140.367188 C 176.453125 139.917969 176.09375 139.5625 175.644531 139.375 C 175.195312 139.1875 174.6875 139.191406 174.238281 139.378906 C 172.832031 139.96875 171.164062 139.597656 170.117188 138.433594 C 169.332031 137.5625 167.660156 137.726562 167.066406 138.738281 C 166.539062 139.644531 165.308594 139.917969 164.46875 139.351562 C 163.996094 139.03125 163.402344 138.949219 162.863281 139.128906 C 162.324219 139.304688 161.898438 139.726562 161.710938 140.261719 C 161.449219 141 160.761719 141.496094 159.992188 141.496094 Z M 176.496094 148.832031 C 176.496094 152.875 173.207031 156.167969 169.160156 156.167969 C 165.117188 156.167969 161.828125 152.875 161.828125 148.832031 L 161.828125 144.847656 C 162.753906 144.515625 163.578125 143.9375 164.207031 143.179688 C 165.8125 143.5625 167.582031 143.167969 168.871094 142.152344 C 170.414062 143.148438 172.335938 143.539062 174.128906 143.214844 C 174.757812 143.960938 175.578125 144.527344 176.496094 144.851562 Z M 182 183.671875 C 184.320312 183.671875 186.300781 185.125 187.109375 187.164062 L 186.964844 187.339844 L 151.136719 187.339844 C 151.894531 185.207031 153.933594 183.671875 156.324219 183.671875 Z M 187.738281 182.082031 C 186.160156 180.804688 184.179688 180.003906 182 180.003906 L 180.425781 180.003906 C 181.246094 176.851562 184.09375 174.503906 187.5 174.503906 L 189.8125 174.503906 C 188.773438 176.875 188.070312 179.421875 187.738281 182.082031 Z M 185.703125 194.675781 L 188.207031 191.613281 C 188.445312 192.660156 188.75 193.679688 189.105469 194.675781 Z M 215.007812 209.347656 C 201.863281 209.347656 191.167969 198.652344 191.167969 185.507812 C 191.167969 172.363281 201.863281 161.667969 215.007812 161.667969 C 228.152344 161.667969 238.847656 172.363281 238.847656 185.507812 C 238.847656 198.652344 228.152344 209.347656 215.007812 209.347656 Z M 215.007812 209.347656 "/></clipPath><clipPath id="cb66cc8b53"><path d="M 194 165 L 236 165 L 236 206 L 194 206 Z M 194 165 "/></clipPath><clipPath id="70c4e00c6d"><path d="M 215.007812 165.335938 C 203.886719 165.335938 194.835938 174.386719 194.835938 185.507812 C 194.835938 196.628906 203.886719 205.679688 215.007812 205.679688 C 226.128906 205.679688 235.179688 196.628906 235.179688 185.507812 C 235.179688 174.386719 226.128906 165.335938 215.007812 165.335938 Z M 215.007812 202.011719 C 205.90625 202.011719 198.503906 194.605469 198.503906 185.507812 C 198.503906 176.40625 205.90625 169.003906 215.007812 169.003906 C 224.109375 169.003906 231.511719 176.40625 231.511719 185.507812 C 231.511719 194.605469 224.109375 202.011719 215.007812 202.011719 Z M 215.007812 202.011719 "/></clipPath><clipPath id="8be88f3c59"><path d="M 204 172 L 227 172 L 227 199 L 204 199 Z M 204 172 "/></clipPath><clipPath id="22a62cea26"><path d="M 225.121094 178.433594 L 215.949219 172.933594 C 215.371094 172.585938 214.644531 172.585938 214.0625 172.933594 L 204.894531 178.433594 C 204.34375 178.765625 204.003906 179.363281 204.003906 180.003906 L 204.003906 191.007812 C 204.003906 191.652344 204.34375 192.25 204.894531 192.578125 L 214.0625 198.082031 C 214.355469 198.257812 214.679688 198.34375 215.007812 198.34375 C 215.332031 198.34375 215.660156 198.257812 215.949219 198.082031 L 225.121094 192.578125 C 225.671875 192.25 226.007812 191.652344 226.007812 191.007812 L 226.007812 180.003906 C 226.007812 179.363281 225.671875 178.765625 225.121094 178.433594 Z M 215.007812 176.640625 L 220.609375 180.003906 L 215.007812 183.367188 L 209.402344 180.003906 Z M 207.671875 183.242188 L 213.171875 186.542969 L 213.171875 193.269531 L 207.671875 189.96875 Z M 216.839844 193.269531 L 216.839844 186.546875 L 222.34375 183.246094 L 222.34375 189.96875 Z M 216.839844 193.269531 "/></clipPath></defs><g id="2fe248a70d"><g clip-rule="nonzero" clip-path="url(#4050574b29)"><g clip-rule="nonzero" clip-path="url(#21b7336f0d)"><path style=" stroke:none;fill-rule:nonzero;fill:#ffffff;fill-opacity:1;" d="M 139.820312 110.320312 L 139.820312 113.988281 L 143.488281 113.988281 L 143.488281 110.320312 Z M 139.820312 110.320312 "/></g></g><g clip-rule="nonzero" clip-path="url(#28650d8fd4)"><g clip-rule="nonzero" clip-path="url(#6d4bd06f0c)"><path style=" stroke:none;fill-rule:nonzero;fill:#ffffff;fill-opacity:1;" d="M 147.15625 110.320312 L 147.15625 113.988281 L 150.824219 113.988281 L 150.824219 110.320312 Z M 147.15625 110.320312 "/></g></g><g clip-rule="nonzero" clip-path="url(#e2cb8dc6f4)"><g clip-rule="nonzero" clip-path="url(#bafeb43802)"><path style=" stroke:none;fill-rule:nonzero;fill:#ffffff;fill-opacity:1;" d="M 154.492188 110.320312 L 154.492188 113.988281 L 158.160156 113.988281 L 158.160156 110.320312 Z M 154.492188 110.320312 "/></g></g><g clip-rule="nonzero" clip-path="url(#f0fafbeb3d)"><g clip-rule="nonzero" clip-path="url(#6a45de788a)"><path style=" stroke:none;fill-rule:nonzero;fill:#ffffff;fill-opacity:1;" d="M 169.160156 110.320312 L 169.160156 113.988281 L 207.671875 113.988281 L 207.671875 110.320312 Z M 169.160156 110.320312 "/></g></g><g clip-rule="nonzero" clip-path="url(#507491a445)"><g clip-rule="nonzero" clip-path="url(#83826a5199)"><path style=" stroke:none;fill-rule:nonzero;fill:#ffffff;fill-opacity:1;" d="M 211.339844 110.320312 L 211.339844 113.988281 L 224.175781 113.988281 L 224.175781 110.320312 Z M 211.339844 110.320312 "/></g></g><g clip-rule="nonzero" clip-path="url(#a51b4c98b0)"><g clip-rule="nonzero" clip-path="url(#097199d87b)"><path style=" stroke:none;fill-rule:nonzero;fill:#ffffff;fill-opacity:1;" d="M 170.996094 146.996094 L 170.996094 150.664062 L 174.664062 150.664062 L 174.664062 146.996094 Z M 170.996094 146.996094 "/></g></g><g clip-rule="nonzero" clip-path="url(#d88884e8d2)"><g clip-rule="nonzero" clip-path="url(#e1d712229a)"><path style=" stroke:none;fill-rule:nonzero;fill:#ffffff;fill-opacity:1;" d="M 163.660156 146.996094 L 163.660156 150.664062 L 167.328125 150.664062 L 167.328125 146.996094 Z M 163.660156 146.996094 "/></g></g><g clip-rule="nonzero" clip-path="url(#e72c6b67d8)"><g clip-rule="nonzero" clip-path="url(#85429f971a)"><path style=" stroke:none;fill-rule:nonzero;fill:#ffffff;fill-opacity:1;" d="M 158.160156 167.167969 L 158.160156 174.503906 L 180.164062 174.503906 L 180.164062 167.167969 Z M 158.160156 167.167969 "/></g></g><g clip-rule="nonzero" clip-path="url(#0bb5c84520)"><g clip-rule="nonzero" clip-path="url(#206d2c677d)"><path style=" stroke:none;fill-rule:nonzero;fill:#ffffff;fill-opacity:1;" d="M 185.667969 124.992188 L 185.667969 128.660156 L 196.667969 128.660156 L 196.667969 124.992188 Z M 185.667969 124.992188 "/></g></g><g clip-rule="nonzero" clip-path="url(#82b4fa78cf)"><g clip-rule="nonzero" clip-path="url(#9640beb681)"><path style=" stroke:none;fill-rule:nonzero;fill:#ffffff;fill-opacity:1;" d="M 139.820312 124.992188 L 139.820312 128.660156 L 150.824219 128.660156 L 150.824219 124.992188 Z M 139.820312 124.992188 "/></g></g><g clip-rule="nonzero" clip-path="url(#ea90f80ca3)"><g clip-rule="nonzero" clip-path="url(#3693872027)"><path style=" stroke:none;fill-rule:nonzero;fill:#ffffff;fill-opacity:1;" d="M 139.820312 132.328125 L 139.820312 135.996094 L 148.992188 135.996094 L 148.992188 132.328125 Z M 139.820312 132.328125 "/></g></g><g clip-rule="nonzero" clip-path="url(#f1c0d7873a)"><g clip-rule="nonzero" clip-path="url(#6836e95975)"><path style=" stroke:none;fill-rule:nonzero;fill:#ffffff;fill-opacity:1;" d="M 132.484375 102.984375 L 132.484375 213.011719 L 242.511719 213.011719 L 242.511719 102.984375 Z M 132.484375 102.984375 "/></g></g><g clip-rule="nonzero" clip-path="url(#cb66cc8b53)"><g clip-rule="nonzero" clip-path="url(#70c4e00c6d)"><path style=" stroke:none;fill-rule:nonzero;fill:#ffffff;fill-opacity:1;" d="M 194.835938 165.335938 L 194.835938 205.679688 L 235.179688 205.679688 L 235.179688 165.335938 Z M 194.835938 165.335938 "/></g></g><g clip-rule="nonzero" clip-path="url(#8be88f3c59)"><g clip-rule="nonzero" clip-path="url(#22a62cea26)"><path style=" stroke:none;fill-rule:nonzero;fill:#ffffff;fill-opacity:1;" d="M 204.003906 172.585938 L 204.003906 198.34375 L 226.007812 198.34375 L 226.007812 172.585938 Z M 204.003906 172.585938 "/></g></g><g style="fill:#ffffff;fill-opacity:1;"><g transform="translate(123.702807, 248.9637)"><path style="stroke:none" d="M 8.0625 -17.328125 L 8.0625 0 L 2.8125 0 L 2.8125 -26.984375 L 6.984375 -26.984375 L 20.9375 -9.203125 L 20.9375 -26.9375 L 26.1875 -26.9375 L 26.1875 0 L 21.8125 0 Z M 8.0625 -17.328125 "/></g></g><g style="fill:#ffffff;fill-opacity:1;"><g transform="translate(152.690884, 248.9637)"><path style="stroke:none" d="M 21.546875 -4.59375 L 21.546875 0 L 2.8125 0 L 2.8125 -26.984375 L 21.203125 -26.984375 L 21.203125 -22.375 L 8.0625 -22.375 L 8.0625 -15.890625 L 19.421875 -15.890625 L 19.421875 -11.625 L 8.0625 -11.625 L 8.0625 -4.59375 Z M 21.546875 -4.59375 "/></g></g><g style="fill:#ffffff;fill-opacity:1;"><g transform="translate(175.524215, 248.9637)"><path style="stroke:none" d="M 2.8125 0 L 2.8125 -26.984375 L 14.75 -26.984375 C 15.988281 -26.984375 17.132812 -26.726562 18.1875 -26.21875 C 19.238281 -25.707031 20.148438 -25.019531 20.921875 -24.15625 C 21.691406 -23.300781 22.285156 -22.34375 22.703125 -21.28125 C 23.117188 -20.21875 23.328125 -19.128906 23.328125 -18.015625 C 23.328125 -16.867188 23.128906 -15.769531 22.734375 -14.71875 C 22.347656 -13.664062 21.785156 -12.75 21.046875 -11.96875 C 20.316406 -11.1875 19.457031 -10.578125 18.46875 -10.140625 L 24.625 0 L 18.84375 0 L 13.296875 -9.046875 L 8.0625 -9.046875 L 8.0625 0 Z M 8.0625 -13.640625 L 14.625 -13.640625 C 15.289062 -13.640625 15.875 -13.832031 16.375 -14.21875 C 16.882812 -14.613281 17.289062 -15.140625 17.59375 -15.796875 C 17.894531 -16.460938 18.046875 -17.203125 18.046875 -18.015625 C 18.046875 -18.867188 17.867188 -19.617188 17.515625 -20.265625 C 17.160156 -20.910156 16.710938 -21.421875 16.171875 -21.796875 C 15.628906 -22.179688 15.039062 -22.375 14.40625 -22.375 L 8.0625 -22.375 Z M 8.0625 -13.640625 "/></g></g><g style="fill:#ffffff;fill-opacity:1;"><g transform="translate(200.789048, 248.9637)"><path style="stroke:none" d="M 2.8125 0 L 2.8125 -26.984375 L 12.609375 -26.984375 C 15.554688 -26.984375 18.015625 -26.378906 19.984375 -25.171875 C 21.960938 -23.972656 23.445312 -22.351562 24.4375 -20.3125 C 25.425781 -18.269531 25.921875 -16.007812 25.921875 -13.53125 C 25.921875 -10.789062 25.375 -8.40625 24.28125 -6.375 C 23.1875 -4.351562 21.644531 -2.785156 19.65625 -1.671875 C 17.675781 -0.554688 15.328125 0 12.609375 0 Z M 20.640625 -13.53125 C 20.640625 -15.28125 20.320312 -16.816406 19.6875 -18.140625 C 19.050781 -19.472656 18.132812 -20.507812 16.9375 -21.25 C 15.75 -22 14.304688 -22.375 12.609375 -22.375 L 8.0625 -22.375 L 8.0625 -4.59375 L 12.609375 -4.59375 C 14.335938 -4.59375 15.796875 -4.976562 16.984375 -5.75 C 18.171875 -6.53125 19.078125 -7.597656 19.703125 -8.953125 C 20.328125 -10.304688 20.640625 -11.832031 20.640625 -13.53125 Z M 20.640625 -13.53125 "/></g></g><g style="fill:#ffffff;fill-opacity:1;"><g transform="translate(227.991492, 248.9637)"><path style="stroke:none" d="M 18.890625 -19.90625 C 18.710938 -20.082031 18.390625 -20.320312 17.921875 -20.625 C 17.453125 -20.9375 16.878906 -21.226562 16.203125 -21.5 C 15.535156 -21.78125 14.804688 -22.03125 14.015625 -22.25 C 13.234375 -22.46875 12.4375 -22.578125 11.625 -22.578125 C 10.207031 -22.578125 9.132812 -22.304688 8.40625 -21.765625 C 7.6875 -21.234375 7.328125 -20.488281 7.328125 -19.53125 C 7.328125 -18.800781 7.554688 -18.21875 8.015625 -17.78125 C 8.472656 -17.351562 9.15625 -16.984375 10.0625 -16.671875 C 10.976562 -16.367188 12.117188 -16.039062 13.484375 -15.6875 C 15.265625 -15.257812 16.804688 -14.734375 18.109375 -14.109375 C 19.410156 -13.492188 20.410156 -12.6875 21.109375 -11.6875 C 21.804688 -10.6875 22.15625 -9.363281 22.15625 -7.71875 C 22.15625 -6.269531 21.890625 -5.03125 21.359375 -4 C 20.828125 -2.976562 20.09375 -2.148438 19.15625 -1.515625 C 18.21875 -0.878906 17.148438 -0.414062 15.953125 -0.125 C 14.765625 0.15625 13.5 0.296875 12.15625 0.296875 C 10.8125 0.296875 9.46875 0.160156 8.125 -0.109375 C 6.789062 -0.390625 5.5 -0.789062 4.25 -1.3125 C 3.007812 -1.832031 1.875 -2.457031 0.84375 -3.1875 L 3.15625 -7.71875 C 3.382812 -7.488281 3.789062 -7.1875 4.375 -6.8125 C 4.957031 -6.445312 5.664062 -6.082031 6.5 -5.71875 C 7.332031 -5.351562 8.242188 -5.039062 9.234375 -4.78125 C 10.222656 -4.53125 11.222656 -4.40625 12.234375 -4.40625 C 13.648438 -4.40625 14.722656 -4.644531 15.453125 -5.125 C 16.191406 -5.613281 16.5625 -6.300781 16.5625 -7.1875 C 16.5625 -7.988281 16.269531 -8.617188 15.6875 -9.078125 C 15.101562 -9.535156 14.289062 -9.9375 13.25 -10.28125 C 12.21875 -10.625 10.992188 -11 9.578125 -11.40625 C 7.878906 -11.882812 6.457031 -12.421875 5.3125 -13.015625 C 4.175781 -13.609375 3.328125 -14.359375 2.765625 -15.265625 C 2.210938 -16.179688 1.9375 -17.328125 1.9375 -18.703125 C 1.9375 -20.546875 2.375 -22.09375 3.25 -23.34375 C 4.125 -24.601562 5.304688 -25.554688 6.796875 -26.203125 C 8.296875 -26.847656 9.957031 -27.171875 11.78125 -27.171875 C 13.050781 -27.171875 14.25 -27.03125 15.375 -26.75 C 16.5 -26.46875 17.554688 -26.097656 18.546875 -25.640625 C 19.535156 -25.191406 20.421875 -24.703125 21.203125 -24.171875 Z M 18.890625 -19.90625 "/></g></g><g style="fill:#ffffff;fill-opacity:1;"><g transform="translate(113.091026, 268.713702)"><path style="stroke:none" d="M 0.375 -4.3125 C 0.375 -4.832031 0.46875 -5.34375 0.65625 -5.84375 C 0.84375 -6.34375 1.113281 -6.800781 1.46875 -7.21875 C 1.832031 -7.632812 2.273438 -7.960938 2.796875 -8.203125 C 3.316406 -8.441406 3.910156 -8.5625 4.578125 -8.5625 C 5.359375 -8.5625 6.035156 -8.390625 6.609375 -8.046875 C 7.179688 -7.703125 7.609375 -7.253906 7.890625 -6.703125 L 6.609375 -5.828125 C 6.460938 -6.148438 6.273438 -6.40625 6.046875 -6.59375 C 5.816406 -6.78125 5.566406 -6.910156 5.296875 -6.984375 C 5.035156 -7.066406 4.78125 -7.109375 4.53125 -7.109375 C 4.113281 -7.109375 3.75 -7.019531 3.4375 -6.84375 C 3.125 -6.675781 2.863281 -6.457031 2.65625 -6.1875 C 2.457031 -5.914062 2.304688 -5.613281 2.203125 -5.28125 C 2.097656 -4.945312 2.046875 -4.609375 2.046875 -4.265625 C 2.046875 -3.890625 2.101562 -3.523438 2.21875 -3.171875 C 2.34375 -2.828125 2.515625 -2.519531 2.734375 -2.25 C 2.960938 -1.988281 3.226562 -1.78125 3.53125 -1.625 C 3.84375 -1.46875 4.179688 -1.390625 4.546875 -1.390625 C 4.804688 -1.390625 5.070312 -1.429688 5.34375 -1.515625 C 5.625 -1.609375 5.878906 -1.75 6.109375 -1.9375 C 6.335938 -2.132812 6.515625 -2.382812 6.640625 -2.6875 L 8 -1.90625 C 7.832031 -1.476562 7.554688 -1.117188 7.171875 -0.828125 C 6.796875 -0.535156 6.375 -0.3125 5.90625 -0.15625 C 5.4375 0 4.96875 0.078125 4.5 0.078125 C 3.894531 0.078125 3.335938 -0.046875 2.828125 -0.296875 C 2.328125 -0.554688 1.894531 -0.894531 1.53125 -1.3125 C 1.164062 -1.726562 0.878906 -2.195312 0.671875 -2.71875 C 0.472656 -3.25 0.375 -3.78125 0.375 -4.3125 Z M 0.375 -4.3125 "/></g></g><g style="fill:#ffffff;fill-opacity:1;"><g transform="translate(121.935042, 268.713702)"><path style="stroke:none" d="M 0.890625 0 L 0.890625 -8.515625 L 4.65625 -8.515625 C 5.050781 -8.515625 5.410156 -8.4375 5.734375 -8.28125 C 6.066406 -8.125 6.351562 -7.90625 6.59375 -7.625 C 6.84375 -7.351562 7.035156 -7.050781 7.171875 -6.71875 C 7.304688 -6.382812 7.375 -6.039062 7.375 -5.6875 C 7.375 -5.320312 7.3125 -4.972656 7.1875 -4.640625 C 7.0625 -4.316406 6.878906 -4.03125 6.640625 -3.78125 C 6.410156 -3.53125 6.140625 -3.335938 5.828125 -3.203125 L 7.78125 0 L 5.953125 0 L 4.203125 -2.859375 L 2.546875 -2.859375 L 2.546875 0 Z M 2.546875 -4.3125 L 4.625 -4.3125 C 4.832031 -4.3125 5.015625 -4.375 5.171875 -4.5 C 5.328125 -4.625 5.453125 -4.785156 5.546875 -4.984375 C 5.648438 -5.191406 5.703125 -5.425781 5.703125 -5.6875 C 5.703125 -5.957031 5.644531 -6.191406 5.53125 -6.390625 C 5.414062 -6.597656 5.269531 -6.757812 5.09375 -6.875 C 4.925781 -7 4.742188 -7.0625 4.546875 -7.0625 L 2.546875 -7.0625 Z M 2.546875 -4.3125 "/></g></g><g style="fill:#ffffff;fill-opacity:1;"><g transform="translate(130.527048, 268.713702)"><path style="stroke:none" d="M 6.796875 -1.453125 L 6.796875 0 L 0.890625 0 L 0.890625 -8.515625 L 6.703125 -8.515625 L 6.703125 -7.0625 L 2.546875 -7.0625 L 2.546875 -5.015625 L 6.125 -5.015625 L 6.125 -3.671875 L 2.546875 -3.671875 L 2.546875 -1.453125 Z M 6.796875 -1.453125 "/></g></g><g style="fill:#ffffff;fill-opacity:1;"><g transform="translate(138.351053, 268.713702)"><path style="stroke:none" d="M 3.203125 -8.515625 L 4.890625 -8.515625 L 8.015625 0 L 6.3125 0 L 5.515625 -2.125 L 2.546875 -2.125 L 1.765625 0 L 0.0625 0 Z M 5.21875 -3.28125 L 4.046875 -6.796875 L 2.8125 -3.28125 Z M 5.21875 -3.28125 "/></g></g><g style="fill:#ffffff;fill-opacity:1;"><g transform="translate(147.02707, 268.713702)"><path style="stroke:none" d="M 7.265625 -7.0625 L 4.53125 -7.0625 L 4.53125 0 L 2.890625 0 L 2.890625 -7.0625 L 0.171875 -7.0625 L 0.171875 -8.515625 L 7.265625 -8.515625 Z M 7.265625 -7.0625 "/></g></g><g style="fill:#ffffff;fill-opacity:1;"><g transform="translate(155.067082, 268.713702)"><path style="stroke:none" d="M 0.890625 0 L 0.890625 -8.515625 L 2.546875 -8.515625 L 2.546875 0 Z M 0.890625 0 "/></g></g><g style="fill:#ffffff;fill-opacity:1;"><g transform="translate(159.11108, 268.713702)"><path style="stroke:none" d="M 1.765625 -8.515625 L 4.0625 -1.96875 L 6.34375 -8.515625 L 8.09375 -8.515625 L 4.859375 0 L 3.265625 0 L 0.03125 -8.515625 Z M 1.765625 -8.515625 "/></g></g><g style="fill:#ffffff;fill-opacity:1;"><g transform="translate(167.835094, 268.713702)"><path style="stroke:none" d="M 6.796875 -1.453125 L 6.796875 0 L 0.890625 0 L 0.890625 -8.515625 L 6.703125 -8.515625 L 6.703125 -7.0625 L 2.546875 -7.0625 L 2.546875 -5.015625 L 6.125 -5.015625 L 6.125 -3.671875 L 2.546875 -3.671875 L 2.546875 -1.453125 Z M 6.796875 -1.453125 "/></g></g><g style="fill:#ffffff;fill-opacity:1;"><g transform="translate(175.659098, 268.713702)"><path style="stroke:none" d=""/></g></g><g style="fill:#ffffff;fill-opacity:1;"><g transform="translate(179.151103, 268.713702)"><path style="stroke:none" d="M 0.890625 0 L 0.890625 -8.515625 L 3.984375 -8.515625 C 4.910156 -8.515625 5.6875 -8.320312 6.3125 -7.9375 C 6.9375 -7.5625 7.40625 -7.050781 7.71875 -6.40625 C 8.03125 -5.769531 8.1875 -5.054688 8.1875 -4.265625 C 8.1875 -3.398438 8.015625 -2.648438 7.671875 -2.015625 C 7.328125 -1.378906 6.835938 -0.882812 6.203125 -0.53125 C 5.578125 -0.175781 4.835938 0 3.984375 0 Z M 6.515625 -4.265625 C 6.515625 -4.816406 6.414062 -5.300781 6.21875 -5.71875 C 6.019531 -6.144531 5.726562 -6.472656 5.34375 -6.703125 C 4.96875 -6.941406 4.515625 -7.0625 3.984375 -7.0625 L 2.546875 -7.0625 L 2.546875 -1.453125 L 3.984375 -1.453125 C 4.523438 -1.453125 4.984375 -1.570312 5.359375 -1.8125 C 5.734375 -2.0625 6.019531 -2.398438 6.21875 -2.828125 C 6.414062 -3.253906 6.515625 -3.734375 6.515625 -4.265625 Z M 6.515625 -4.265625 "/></g></g><g style="fill:#ffffff;fill-opacity:1;"><g transform="translate(188.355116, 268.713702)"><path style="stroke:none" d="M 6.796875 -1.453125 L 6.796875 0 L 0.890625 0 L 0.890625 -8.515625 L 6.703125 -8.515625 L 6.703125 -7.0625 L 2.546875 -7.0625 L 2.546875 -5.015625 L 6.125 -5.015625 L 6.125 -3.671875 L 2.546875 -3.671875 L 2.546875 -1.453125 Z M 6.796875 -1.453125 "/></g></g><g style="fill:#ffffff;fill-opacity:1;"><g transform="translate(196.17912, 268.713702)"><path style="stroke:none" d="M 1.765625 -8.515625 L 4.0625 -1.96875 L 6.34375 -8.515625 L 8.09375 -8.515625 L 4.859375 0 L 3.265625 0 L 0.03125 -8.515625 Z M 1.765625 -8.515625 "/></g></g><g style="fill:#ffffff;fill-opacity:1;"><g transform="translate(204.903134, 268.713702)"><path style="stroke:none" d="M 6.796875 -1.453125 L 6.796875 0 L 0.890625 0 L 0.890625 -8.515625 L 6.703125 -8.515625 L 6.703125 -7.0625 L 2.546875 -7.0625 L 2.546875 -5.015625 L 6.125 -5.015625 L 6.125 -3.671875 L 2.546875 -3.671875 L 2.546875 -1.453125 Z M 6.796875 -1.453125 "/></g></g><g style="fill:#ffffff;fill-opacity:1;"><g transform="translate(212.727139, 268.713702)"><path style="stroke:none" d="M 0.890625 0 L 0.890625 -8.515625 L 2.546875 -8.515625 L 2.546875 -1.453125 L 6.890625 -1.453125 L 6.890625 0 Z M 0.890625 0 "/></g></g><g style="fill:#ffffff;fill-opacity:1;"><g transform="translate(220.347152, 268.713702)"><path style="stroke:none" d="M 4.53125 0.0625 C 3.90625 0.0625 3.335938 -0.0546875 2.828125 -0.296875 C 2.316406 -0.535156 1.878906 -0.859375 1.515625 -1.265625 C 1.148438 -1.679688 0.867188 -2.144531 0.671875 -2.65625 C 0.472656 -3.175781 0.375 -3.710938 0.375 -4.265625 C 0.375 -4.828125 0.476562 -5.363281 0.6875 -5.875 C 0.90625 -6.394531 1.195312 -6.859375 1.5625 -7.265625 C 1.9375 -7.671875 2.375 -7.988281 2.875 -8.21875 C 3.382812 -8.457031 3.945312 -8.578125 4.5625 -8.578125 C 5.175781 -8.578125 5.738281 -8.453125 6.25 -8.203125 C 6.757812 -7.960938 7.191406 -7.632812 7.546875 -7.21875 C 7.910156 -6.800781 8.191406 -6.332031 8.390625 -5.8125 C 8.585938 -5.300781 8.6875 -4.773438 8.6875 -4.234375 C 8.6875 -3.671875 8.582031 -3.128906 8.375 -2.609375 C 8.164062 -2.097656 7.875 -1.640625 7.5 -1.234375 C 7.132812 -0.835938 6.695312 -0.519531 6.1875 -0.28125 C 5.675781 -0.0507812 5.125 0.0625 4.53125 0.0625 Z M 2.046875 -4.265625 C 2.046875 -3.890625 2.101562 -3.53125 2.21875 -3.1875 C 2.332031 -2.84375 2.492188 -2.535156 2.703125 -2.265625 C 2.921875 -2.003906 3.179688 -1.796875 3.484375 -1.640625 C 3.796875 -1.484375 4.144531 -1.40625 4.53125 -1.40625 C 4.9375 -1.40625 5.296875 -1.484375 5.609375 -1.640625 C 5.921875 -1.804688 6.179688 -2.023438 6.390625 -2.296875 C 6.597656 -2.578125 6.753906 -2.890625 6.859375 -3.234375 C 6.960938 -3.578125 7.015625 -3.921875 7.015625 -4.265625 C 7.015625 -4.628906 6.957031 -4.976562 6.84375 -5.3125 C 6.726562 -5.65625 6.5625 -5.960938 6.34375 -6.234375 C 6.132812 -6.503906 5.875 -6.71875 5.5625 -6.875 C 5.257812 -7.03125 4.914062 -7.109375 4.53125 -7.109375 C 4.125 -7.109375 3.765625 -7.023438 3.453125 -6.859375 C 3.148438 -6.691406 2.894531 -6.472656 2.6875 -6.203125 C 2.476562 -5.929688 2.316406 -5.625 2.203125 -5.28125 C 2.097656 -4.945312 2.046875 -4.609375 2.046875 -4.265625 Z M 2.046875 -4.265625 "/></g></g><g style="fill:#ffffff;fill-opacity:1;"><g transform="translate(230.031165, 268.713702)"><path style="stroke:none" d="M 0.890625 0 L 0.890625 -8.515625 L 4.5 -8.515625 C 4.894531 -8.515625 5.253906 -8.4375 5.578125 -8.28125 C 5.910156 -8.125 6.195312 -7.90625 6.4375 -7.625 C 6.675781 -7.351562 6.863281 -7.050781 7 -6.71875 C 7.144531 -6.382812 7.21875 -6.039062 7.21875 -5.6875 C 7.21875 -5.207031 7.101562 -4.75 6.875 -4.3125 C 6.65625 -3.882812 6.347656 -3.535156 5.953125 -3.265625 C 5.554688 -2.992188 5.09375 -2.859375 4.5625 -2.859375 L 2.546875 -2.859375 L 2.546875 0 Z M 2.546875 -4.3125 L 4.46875 -4.3125 C 4.664062 -4.3125 4.84375 -4.363281 5 -4.46875 C 5.164062 -4.582031 5.296875 -4.742188 5.390625 -4.953125 C 5.484375 -5.171875 5.53125 -5.414062 5.53125 -5.6875 C 5.53125 -5.976562 5.472656 -6.226562 5.359375 -6.4375 C 5.253906 -6.644531 5.113281 -6.800781 4.9375 -6.90625 C 4.769531 -7.007812 4.585938 -7.0625 4.390625 -7.0625 L 2.546875 -7.0625 Z M 2.546875 -4.3125 "/></g></g><g style="fill:#ffffff;fill-opacity:1;"><g transform="translate(238.119173, 268.713702)"><path style="stroke:none" d="M 6.796875 -1.453125 L 6.796875 0 L 0.890625 0 L 0.890625 -8.515625 L 6.703125 -8.515625 L 6.703125 -7.0625 L 2.546875 -7.0625 L 2.546875 -5.015625 L 6.125 -5.015625 L 6.125 -3.671875 L 2.546875 -3.671875 L 2.546875 -1.453125 Z M 6.796875 -1.453125 "/></g></g><g style="fill:#ffffff;fill-opacity:1;"><g transform="translate(245.943178, 268.713702)"><path style="stroke:none" d="M 0.890625 0 L 0.890625 -8.515625 L 4.65625 -8.515625 C 5.050781 -8.515625 5.410156 -8.4375 5.734375 -8.28125 C 6.066406 -8.125 6.351562 -7.90625 6.59375 -7.625 C 6.84375 -7.351562 7.035156 -7.050781 7.171875 -6.71875 C 7.304688 -6.382812 7.375 -6.039062 7.375 -5.6875 C 7.375 -5.320312 7.3125 -4.972656 7.1875 -4.640625 C 7.0625 -4.316406 6.878906 -4.03125 6.640625 -3.78125 C 6.410156 -3.53125 6.140625 -3.335938 5.828125 -3.203125 L 7.78125 0 L 5.953125 0 L 4.203125 -2.859375 L 2.546875 -2.859375 L 2.546875 0 Z M 2.546875 -4.3125 L 4.625 -4.3125 C 4.832031 -4.3125 5.015625 -4.375 5.171875 -4.5 C 5.328125 -4.625 5.453125 -4.785156 5.546875 -4.984375 C 5.648438 -5.191406 5.703125 -5.425781 5.703125 -5.6875 C 5.703125 -5.957031 5.644531 -6.191406 5.53125 -6.390625 C 5.414062 -6.597656 5.269531 -6.757812 5.09375 -6.875 C 4.925781 -7 4.742188 -7.0625 4.546875 -7.0625 L 2.546875 -7.0625 Z M 2.546875 -4.3125 "/></g></g><g style="fill:#ffffff;fill-opacity:1;"><g transform="translate(254.535184, 268.713702)"><path style="stroke:none" d="M 5.96875 -6.28125 C 5.90625 -6.34375 5.800781 -6.421875 5.65625 -6.515625 C 5.507812 -6.609375 5.328125 -6.695312 5.109375 -6.78125 C 4.898438 -6.875 4.671875 -6.953125 4.421875 -7.015625 C 4.179688 -7.085938 3.929688 -7.125 3.671875 -7.125 C 3.222656 -7.125 2.882812 -7.039062 2.65625 -6.875 C 2.425781 -6.707031 2.3125 -6.472656 2.3125 -6.171875 C 2.3125 -5.929688 2.382812 -5.742188 2.53125 -5.609375 C 2.675781 -5.472656 2.890625 -5.359375 3.171875 -5.265625 C 3.460938 -5.171875 3.828125 -5.066406 4.265625 -4.953125 C 4.816406 -4.816406 5.300781 -4.648438 5.71875 -4.453125 C 6.132812 -4.253906 6.453125 -4 6.671875 -3.6875 C 6.890625 -3.375 7 -2.957031 7 -2.4375 C 7 -1.976562 6.910156 -1.585938 6.734375 -1.265625 C 6.566406 -0.941406 6.335938 -0.679688 6.046875 -0.484375 C 5.753906 -0.285156 5.414062 -0.140625 5.03125 -0.046875 C 4.65625 0.046875 4.257812 0.09375 3.84375 0.09375 C 3.414062 0.09375 2.988281 0.0507812 2.5625 -0.03125 C 2.144531 -0.125 1.738281 -0.25 1.34375 -0.40625 C 0.945312 -0.570312 0.585938 -0.773438 0.265625 -1.015625 L 1 -2.4375 C 1.070312 -2.363281 1.195312 -2.269531 1.375 -2.15625 C 1.5625 -2.039062 1.785156 -1.921875 2.046875 -1.796875 C 2.316406 -1.679688 2.609375 -1.582031 2.921875 -1.5 C 3.234375 -1.425781 3.546875 -1.390625 3.859375 -1.390625 C 4.304688 -1.390625 4.644531 -1.460938 4.875 -1.609375 C 5.113281 -1.765625 5.234375 -1.984375 5.234375 -2.265625 C 5.234375 -2.523438 5.140625 -2.722656 4.953125 -2.859375 C 4.773438 -3.003906 4.519531 -3.128906 4.1875 -3.234375 C 3.863281 -3.347656 3.476562 -3.46875 3.03125 -3.59375 C 2.488281 -3.75 2.035156 -3.921875 1.671875 -4.109375 C 1.316406 -4.296875 1.050781 -4.53125 0.875 -4.8125 C 0.695312 -5.101562 0.609375 -5.46875 0.609375 -5.90625 C 0.609375 -6.488281 0.742188 -6.976562 1.015625 -7.375 C 1.296875 -7.769531 1.671875 -8.066406 2.140625 -8.265625 C 2.617188 -8.472656 3.144531 -8.578125 3.71875 -8.578125 C 4.113281 -8.578125 4.488281 -8.53125 4.84375 -8.4375 C 5.207031 -8.351562 5.546875 -8.238281 5.859375 -8.09375 C 6.171875 -7.957031 6.453125 -7.800781 6.703125 -7.625 Z M 5.96875 -6.28125 "/></g></g></g></svg>